# xmcd
#
# Track frame offsets:
#  150
#  14712
#  30959
#  45368
#  63546
#  79719
#  89931
#  96715
#  112687
#  124049
#
# Disc length: 1878 seconds
#
# Revision: 0
# Processed by: cddbd v1.5.1PL2 Copyright (c) Steve Scherf et al.
# Submitted via: Collectorz.com_Music_Collector 6.9
#
DISCID=7e07540a
DTITLE=Swingin' Doors - unhinged
DYEAR=2003
DGENRE=Rockabilly
TTITLE0=Jaco
TTITLE1=So Pretty So Fast
TTITLE2=Homeless
TTITLE3=I Came Down
TTITLE4=You're Just Her Tattoo
TTITLE5=Offer Me The World
TTITLE6=One Eye Love
TTITLE7=On and On
TTITLE8=Your Word Against Mine
TTITLE9=Dreaming
EXTD=
EXTT0=
EXTT1=
EXTT2=
EXTT3=
EXTT4=
EXTT5=
EXTT6=
EXTT7=
EXTT8=
EXTT9=
PLAYORDER=
